<?xml version="1.0" encoding="UTF-8" standalone="no"?>
<svg
   sodipodi:docname="logo-medihelp.svg"
   inkscape:version="1.1.1 (3bf5ae0d25, 2021-09-20, custom)"
   version="1.1"
   id="svg2"
   height="280.49142"
   width="471.26566"
   viewBox="0 0 471.26566 280.49142"
   xmlns:inkscape="http://www.inkscape.org/namespaces/inkscape"
   xmlns:sodipodi="http://sodipodi.sourceforge.net/DTD/sodipodi-0.dtd"
   xmlns="http://www.w3.org/2000/svg"
   xmlns:svg="http://www.w3.org/2000/svg"
   xmlns:rdf="http://www.w3.org/1999/02/22-rdf-syntax-ns#"
   xmlns:cc="http://creativecommons.org/ns#"
   xmlns:dc="http://purl.org/dc/elements/1.1/">
  <defs
     id="defs4" />
  <sodipodi:namedview
     inkscape:document-rotation="0"
     units="px"
     inkscape:window-maximized="1"
     inkscape:window-y="40"
     inkscape:window-x="0"
     inkscape:window-height="1040"
     inkscape:window-width="1920"
     inkscape:showpageshadow="false"
     borderlayer="true"
     showborder="true"
     showgrid="false"
     inkscape:current-layer="svg2"
     inkscape:document-units="px"
     inkscape:cy="195.23507"
     inkscape:cx="220.21776"
     inkscape:zoom="1.0807484"
     inkscape:pageshadow="2"
     inkscape:pageopacity="0"
     borderopacity="1"
     bordercolor="#20ff00"
     pagecolor="#ffffff"
     id="base"
     inkscape:pagecheckerboard="0" />
  <metadata
     id="metadata7">
    <rdf:RDF>
      <cc:Work
         rdf:about="">
        <dc:format>image/svg+xml</dc:format>
        <dc:type
           rdf:resource="http://purl.org/dc/dcmitype/StillImage" />
      </cc:Work>
    </rdf:RDF>
  </metadata>
  <path
     id="path171577"
     style="fill:#45c2c4;fill-opacity:1;stroke-width:6.38141;paint-order:stroke fill markers;stop-color:#000000"
     d="m 254.12103,43.980519 c 0.75318,12.8641 -14.77666,29.12307 -43.03631,37.61416 -28.25965,8.49108 -54.57129,4.12898 -57.94988,-9.20906 -4.17318,-16.47494 14.50782,-29.33755 42.76747,-37.82863 28.25964,-8.49108 57.4145,-4.31223 58.21872,9.42353 z"
     sodipodi:nodetypes="sssss" />
  <path
     style="fill:#45c2c4;fill-opacity:1;stroke-width:6;paint-order:stroke fill markers;stop-color:#000000"
     d="M 134.35688,63.426919 69.209615,142.41196 C 166.17855,112.8947 303.21032,98.684099 409.74185,134.15976 363.74513,103.12586 311.13655,69.695199 235.6996,87.532999 c -75.43694,17.837801 -99.82469,5.033 -101.34272,-24.10608 z"
     id="path171579"
     sodipodi:nodetypes="ccczc" />
  <path
     style="fill:#b3e0d8;fill-opacity:1;stroke-width:6;paint-order:stroke fill markers;stop-color:#000000"
     d="M 68.503555,148.11793 C 179.57752,121.7917 291.35076,104.94459 406.92717,139.65236 309.58699,127.66675 261.43667,145.63013 204.86045,156.12968 148.28424,166.62923 95.078145,176.08385 68.503555,148.11793 Z"
     id="path171581"
     sodipodi:nodetypes="cczc" />
  <path
     id="path171888"
     style="font-weight:bold;font-size:20.3352px;line-height:1;font-family:Avalon;-inkscape-font-specification:'Avalon Bold';letter-spacing:17.66px;word-spacing:0px;fill:#45c2c4;stroke-width:0.847297"
     d="m 232.17037,163.46406 c -1.20476,0 -2.29451,0.24394 -3.26758,0.73047 -0.97307,0.48323 -1.79177,1.11283 -2.45703,1.89062 -0.66526,0.7778 -1.16886,1.60789 -1.50977,2.48829 -0.3409,0.87708 -0.51172,1.68694 -0.51172,2.43164 0.053,1.61516 0.41346,3.02257 1.08204,4.2207 0.66857,1.19483 1.56294,2.12635 2.68164,2.79492 1.1187,0.66526 2.35214,1.04465 3.69921,1.14063 0.62225,0 1.27897,-0.0769 1.97071,-0.23243 0.69505,-0.15225 1.38579,-0.40307 2.07422,-0.7539 0.68843,-0.35415 1.31999,-0.82059 1.89257,-1.39649 0.5759,-0.5792 1.03724,-1.26935 1.38477,-2.07031 h -3.25586 c -1.02603,1.12203 -2.27205,1.70505 -3.73828,1.74805 -0.64871,-0.01 -1.27457,-0.13849 -1.87695,-0.38672 -0.59907,-0.24823 -1.14178,-0.60499 -1.625,-1.06836 -0.48322,-0.46668 -0.86201,-1.01942 -1.13672,-1.6582 -0.2714,-0.63879 -0.40625,-1.33582 -0.40625,-2.09375 0,-0.87048 0.23194,-1.69801 0.69531,-2.48242 0.46667,-0.78773 1.08939,-1.41929 1.86719,-1.89258 0.77779,-0.4733 1.60533,-0.70899 2.48242,-0.70899 1.45961,0 2.76677,0.62332 3.92187,1.8711 h 3.15235 c -0.30119,-0.90357 -0.84449,-1.70399 -1.62891,-2.40235 -0.7811,-0.69836 -1.66723,-1.23537 -2.66015,-1.60937 -0.99294,-0.374 -1.93645,-0.56055 -2.83008,-0.56055 z m 139.46484,0 c -1.20476,0 -2.29256,0.24394 -3.26562,0.73047 -0.97308,0.48323 -1.79373,1.11283 -2.45899,1.89062 -0.66526,0.7778 -1.1669,1.60789 -1.50781,2.48829 -0.3409,0.87708 -0.51172,1.68694 -0.51172,2.43164 0.0529,1.61516 0.41346,3.02257 1.08203,4.2207 0.66858,1.19483 1.56099,2.12635 2.67969,2.79492 1.1187,0.66526 2.35215,1.04465 3.69922,1.14063 0.62224,0 1.27896,-0.0769 1.9707,-0.23243 0.69505,-0.15225 1.38774,-0.40307 2.07617,-0.7539 0.68844,-0.35415 1.31804,-0.82059 1.89063,-1.39649 0.5759,-0.5792 1.03724,-1.26935 1.38476,-2.07031 h -3.25585 c -1.02603,1.12203 -2.27206,1.70505 -3.73829,1.74805 -0.64871,-0.01 -1.27457,-0.13849 -1.87695,-0.38672 -0.59907,-0.24823 -1.13982,-0.60499 -1.62305,-1.06836 -0.48322,-0.46668 -0.86201,-1.01942 -1.13671,-1.6582 -0.2714,-0.63879 -0.40821,-1.33582 -0.40821,-2.09375 0,-0.87048 0.23195,-1.69801 0.69531,-2.48242 0.46668,-0.78773 1.0894,-1.41929 1.86719,-1.89258 0.7778,-0.4733 1.60534,-0.70899 2.48242,-0.70899 1.45961,0 2.76677,0.62332 3.92188,1.8711 h 3.15234 c -0.30118,-0.90357 -0.84449,-1.70399 -1.6289,-2.40235 -0.78111,-0.69836 -1.66723,-1.23537 -2.66016,-1.60937 -0.99293,-0.374 -1.93644,-0.56055 -2.83008,-0.56055 z m -112.91406,0.2832 v 15.04688 h 7.39844 v -2.70508 h -4.61328 v -12.3418 z m 26.58594,0 v 15.04688 h 2.78515 v -15.04688 z m 23.33593,0 v 15.04688 h 2.78516 v -11 l 6.32422,11 h 3.08789 v -15.04688 h -2.78516 v 11.08008 l -6.2207,-11.08008 z m 32.70704,0 v 15.04688 h 2.78515 v -15.04688 z m 61.87695,0 -6.26172,15.04688 h 3.04883 l 1.66797,-3.88086 h 5.36718 l 1.62891,3.88086 h 3.04688 l -6.33985,-15.04688 z m 1.07617,3.92188 1.62891,4.53711 h -3.21289 z" />
  <path
     id="path171871"
     style="font-weight:bold;font-size:20.3352px;line-height:1;font-family:Avalon;-inkscape-font-specification:'Avalon Bold';letter-spacing:38.02px;word-spacing:0px;fill:#45c2c4;stroke-width:0.847297"
     d="m 62.549265,234.62812 c -0.80758,0 -1.55256,0.1834 -2.23437,0.55078 -0.68181,0.36408 -1.22257,0.87397 -1.62305,1.5293 -0.39717,0.65533 -0.5957,1.39147 -0.5957,2.20899 0.0728,1.1882 0.40619,2.09515 1.00195,2.7207 0.59576,0.62223 1.49387,1.18127 2.69532,1.67773 1.20144,0.49316 1.97354,0.83478 2.31445,1.02344 0.34421,0.18535 0.51562,0.56099 0.51562,1.12695 0,0.19197 -0.0548,0.45733 -0.16406,0.79493 -0.13901,0.37069 -0.4144,0.6852 -0.82812,0.94336 -0.41041,0.25815 -0.85288,0.39614 -1.32618,0.41601 -0.4766,-0.0232 -0.88625,-0.18828 -1.23047,-0.49609 -0.34088,-0.30781 -0.54196,-0.76601 -0.60156,-1.375 h -2.92968 c 0.0298,0.84398 0.26428,1.61668 0.70117,2.31836 0.4402,0.69836 1.03265,1.2505 1.77734,1.65429 0.7447,0.40379 1.56025,0.60547 2.44727,0.60547 0.82412,-0.0331 1.60311,-0.23477 2.33789,-0.60547 0.73807,-0.37069 1.33936,-0.92913 1.80273,-1.67383 0.46337,-0.74469 0.69531,-1.66049 0.69531,-2.74609 -0.0463,-1.10546 -0.3514,-1.95442 -0.91406,-2.54687 -0.56266,-0.59576 -1.22508,-1.05081 -1.98633,-1.36524 -0.76124,-0.31443 -1.52255,-0.64781 -2.28711,-1.00195 -0.76453,-0.35415 -1.17672,-0.79032 -1.23632,-1.30664 0,-0.5428 0.15057,-0.96189 0.45507,-1.25977 0.3045,-0.29787 0.68268,-0.44726 1.13282,-0.44726 0.40378,0 0.75544,0.13111 1.05664,0.39258 0.30118,0.25816 0.49028,0.64069 0.5664,1.15039 h 2.86914 c -0.0993,-1.16173 -0.42323,-2.05984 -0.97265,-2.69532 -0.54942,-0.63878 -1.13932,-1.06356 -1.77149,-1.27539 -0.62885,-0.21182 -1.18474,-0.31836 -1.66797,-0.31836 z m 245.982435,0 c -1.20476,0 -2.29451,0.24393 -3.26758,0.73047 -0.97308,0.48323 -1.79177,1.11283 -2.45703,1.89063 -0.66527,0.77779 -1.16886,1.60788 -1.50977,2.48828 -0.3409,0.87708 -0.51172,1.68694 -0.51172,2.43164 0.053,1.61516 0.41346,3.02256 1.08203,4.2207 0.66858,1.19482 1.56294,2.12635 2.68164,2.79492 1.1187,0.66527 2.35215,1.0466 3.69922,1.14258 0.62224,0 1.27897,-0.0788 1.97071,-0.23437 0.69504,-0.15225 1.38578,-0.40308 2.07422,-0.75391 0.68843,-0.35415 1.31999,-0.81863 1.89257,-1.39453 0.5759,-0.57921 1.03724,-1.26935 1.38477,-2.07031 h -3.25781 c -1.02603,1.12204 -2.27206,1.70309 -3.73829,1.74609 -0.64871,-0.01 -1.27261,-0.13848 -1.875,-0.38672 -0.59906,-0.24823 -1.14177,-0.60304 -1.625,-1.0664 -0.48322,-0.46668 -0.86201,-1.01943 -1.13671,-1.65821 -0.2714,-0.63878 -0.40625,-1.33776 -0.40625,-2.0957 0,-0.87047 0.23194,-1.69801 0.69531,-2.48242 0.46667,-0.78773 1.08744,-1.41929 1.86523,-1.89258 0.7778,-0.4733 1.60534,-0.70898 2.48242,-0.70898 1.45961,0 2.76677,0.6233 3.92188,1.87109 h 3.1543 c -0.30119,-0.90357 -0.8445,-1.70399 -1.62891,-2.40235 -0.78111,-0.69835 -1.66918,-1.23536 -2.66211,-1.60937 -0.99293,-0.37401 -1.93449,-0.56055 -2.82812,-0.56055 z m 99.4082,0 c -0.80759,0 -1.55257,0.1834 -2.23438,0.55078 -0.68181,0.36408 -1.22256,0.87397 -1.62304,1.5293 -0.39718,0.65533 -0.59571,1.39147 -0.59571,2.20899 0.0728,1.1882 0.4062,2.09515 1.00196,2.7207 0.59575,0.62223 1.49386,1.18127 2.69531,1.67773 1.20145,0.49316 1.97355,0.83478 2.31445,1.02344 0.34422,0.18535 0.51563,0.56099 0.51563,1.12695 0,0.19197 -0.0548,0.45733 -0.16406,0.79493 -0.13902,0.37069 -0.41441,0.6852 -0.82813,0.94336 -0.41041,0.25815 -0.85288,0.39614 -1.32617,0.41601 -0.47661,-0.0232 -0.88626,-0.18828 -1.23047,-0.49609 -0.34089,-0.30781 -0.54196,-0.76601 -0.60156,-1.375 h -2.92969 c 0.0298,0.84398 0.26428,1.61668 0.70117,2.31836 0.4402,0.69836 1.03265,1.2505 1.77735,1.65429 0.7447,0.40379 1.56025,0.60547 2.44726,0.60547 0.82413,-0.0331 1.60313,-0.23477 2.33789,-0.60547 0.73808,-0.37069 1.33937,-0.92913 1.80274,-1.67383 0.46336,-0.74469 0.69531,-1.66049 0.69531,-2.74609 -0.0463,-1.10546 -0.3514,-1.95442 -0.91406,-2.54687 -0.56266,-0.59576 -1.22509,-1.05081 -1.98633,-1.36524 -0.76125,-0.31443 -1.52255,-0.64781 -2.28711,-1.00195 -0.76453,-0.35415 -1.17673,-0.79032 -1.23633,-1.30664 0,-0.5428 0.15059,-0.96189 0.45508,-1.25977 0.3045,-0.29787 0.68268,-0.44726 1.13281,-0.44726 0.40379,0 0.75546,0.13111 1.05664,0.39258 0.3012,0.25816 0.49029,0.64069 0.56641,1.15039 h 2.86914 c -0.0993,-1.16173 -0.42324,-2.05984 -0.97266,-2.69532 -0.54942,-0.63878 -1.13932,-1.06356 -1.77148,-1.27539 -0.62886,-0.21182 -1.18474,-0.31836 -1.66797,-0.31836 z m -247.57227,0.26368 c -0.0563,0 -0.14197,0.003 -0.25781,0.01 -0.11583,0.007 -0.19838,0.01 -0.24805,0.01 h -4.02539 v 15.04687 h 2.82422 v -5.83789 l 3.92188,5.83789 h 3.46094 l -4.0918,-5.54883 c 0.92342,-0.21182 1.68039,-0.57802 2.26953,-1.09765 0.58913,-0.51963 1.01017,-1.0938 1.26172,-1.72266 0.25154,-0.62885 0.37695,-1.24213 0.37695,-1.83789 -0.0397,-1.08891 -0.29564,-1.99646 -0.76562,-2.72461 -0.46999,-0.73146 -1.11158,-1.26907 -1.92578,-1.61328 -0.8109,-0.34753 -1.74497,-0.52149 -2.80079,-0.52148 z m -53.12695,0.0195 v 15.04882 h 8.07227 v -2.70703 h -5.28711 v -3.45508 h 5.08398 v -2.70507 h -5.08398 v -3.47657 h 5.32812 v -2.70507 z m 150.64453,0 v 15.04882 h 2.78516 v -15.04879 z m 97.55664,0 v 15.04882 h 8.07227 v -2.70703 h -5.28711 v -3.45508 h 5.08398 v -2.70507 h -5.08398 v -3.47657 h 5.32812 v -2.70507 z m -150.9707,0.0391 5.79297,15.00976 h 2.33789 l 5.79883,-15.00976 h -2.92969 l -4.04492,11.42969 -4.06641,-11.42969 z m -45.84961,2.66601 h 1.50391 c 0.8837,0.0232 1.59212,0.182 2.125,0.47657 0.53288,0.29126 0.80768,0.81628 0.82421,1.57422 0,1.53902 -0.88867,2.33314 -2.66601,2.38281 h -1.78711 z" />
  <path
     style="color:#000000;fill:#b3e0d8;fill-opacity:1;stroke-width:1.33333;-inkscape-stroke:none;paint-order:stroke fill markers"
     d="m 60.739145,185.51095 v -2 H 413.49174 v 2 z"
     id="path171591" />
  <g
     id="g171609"
     style="fill:#45c2c4;fill-opacity:1"
     transform="matrix(1.3333333,0,0,-1.3333333,917.65582,610.90156)">
    <path
       d="m -632.4155,288.97376 -7.87457,23.14408 h -0.13068 q 0.24505,-2.8885 0.24505,-7.13098 v -16.0131 h -2.77733 v 26.39364 h 4.44373 l 7.36811,-21.62763 h 0.1307 l 7.4988,21.62763 h 4.41106 v -26.39364 h -2.97338 v 16.22974 q 0,2.70797 0.22872,6.87824 h -0.1307 l -7.97258,-23.10798 z"
       id="path171593"
       style="font-weight:bold;font-size:32.4576px;line-height:1;font-family:'Droid Naskh Shift Alt';-inkscape-font-specification:'Droid Naskh Shift Alt Bold';letter-spacing:28.1877px;word-spacing:0px;opacity:1;fill:#45c2c4;fill-opacity:1;stroke-width:1.4655" />
    <path
       d="m -580.99039,288.97376 h -11.36693 v 26.39364 h 11.36693 v -2.92459 h -8.80693 v -8.23223 h 8.29214 v -2.88849 h -8.29214 v -9.42374 h 8.80693 z"
       id="path171595"
       style="font-weight:bold;font-size:32.4576px;line-height:1;font-family:'Droid Naskh Shift Alt';-inkscape-font-specification:'Droid Naskh Shift Alt Bold';letter-spacing:28.1877px;word-spacing:0px;opacity:1;fill:#45c2c4;fill-opacity:1;stroke-width:1.3524" />
    <path
       d="m -545.2476,302.42332 c 0,-4.35681 -0.62583,-7.69062 -1.87749,-10.00142 -1.24534,-2.29876 -3.03433,-3.44814 -5.36698,-3.44814 h -4.51301 v 26.39364 h 4.92075 c 2.15564,0 3.83401,-1.13132 5.0351,-3.39397 1.20109,-2.25063 1.80163,-5.434 1.80163,-9.55011 z m -2.5399,-0.40751 c -0.016,3.86025 -0.11423,10.43308 -4.54336,10.51725 h -2.27575 v -20.70693 h 1.88697 c 3.75498,0 4.93214,3.19711 4.93214,10.18968 z"
       id="path171597"
       style="font-weight:bold;font-size:32.4576px;line-height:1;font-family:'Droid Naskh Shift Alt';-inkscape-font-specification:'Droid Naskh Shift Alt Bold';letter-spacing:28.1877px;word-spacing:0px;opacity:1;fill:#45c2c4;fill-opacity:1;stroke-width:1.11648"
       sodipodi:nodetypes="scsccscsccccsc" />
    <path
       d="m -478.49663,288.97376 h -2.55999 v 12.31222 h -5.27676 v -12.31222 h -2.56 v 26.39364 h 2.56 v -11.15682 h 5.27676 v 11.15682 h 2.55999 z"
       id="path171599"
       style="font-weight:bold;font-size:32.4576px;line-height:1;font-family:'Droid Naskh Shift Alt';-inkscape-font-specification:'Droid Naskh Shift Alt Bold';letter-spacing:28.1877px;word-spacing:0px;opacity:1;fill:#45c2c4;fill-opacity:1;stroke-width:1.3524"
       sodipodi:nodetypes="ccccccccccccc" />
    <path
       d="m -422.66789,288.97376 v 26.39364 h 2.55999 v -24.10746 h 6.73201 v -2.28618 z"
       id="path171601"
       style="font-weight:bold;font-size:32.4576px;line-height:1;font-family:'Droid Naskh Shift Alt';-inkscape-font-specification:'Droid Naskh Shift Alt Bold';letter-spacing:28.1877px;word-spacing:0px;opacity:1;fill:#45c2c4;fill-opacity:1;stroke-width:1.3524"
       sodipodi:nodetypes="ccccccc" />
    <path
       d="m -377.95018,307.60456 q 0,-4.0439 -2.12869,-6.21027 -2.12869,-2.14831 -5.9965,-2.14831 h -2.33738 v -10.27222 h -2.55999 v 26.39364 h 5.38433 q 7.63823,0 7.63823,-7.76284 z m -10.46257,-5.50619 h 2.04521 q 3.03303,0 4.39651,1.26371 1.36347,1.28178 1.36347,4.09807 0,2.54549 -1.26608,3.8092 -1.26609,1.26372 -3.9513,1.26372 h -2.58781 z"
       id="path171603"
       style="font-weight:bold;font-size:32.4576px;line-height:1;font-family:'Droid Naskh Shift Alt';-inkscape-font-specification:'Droid Naskh Shift Alt Bold';letter-spacing:28.1877px;word-spacing:0px;opacity:1;fill:#45c2c4;fill-opacity:1;stroke-width:1.3524" />
    <path
       d="m -442.24999,288.97376 h -11.36692 v 26.39364 h 11.36692 v -2.92459 h -8.80692 v -8.23223 h 8.29213 v -2.88849 h -8.29213 v -9.42374 h 8.80692 z"
       id="path171605"
       style="font-weight:bold;font-size:32.4576px;line-height:1;font-family:'Droid Naskh Shift Alt';-inkscape-font-specification:'Droid Naskh Shift Alt Bold';letter-spacing:28.1877px;word-spacing:0px;opacity:1;fill:#45c2c4;fill-opacity:1;stroke-width:1.3524" />
    <path
       style="opacity:1;fill:#45c2c4;fill-opacity:1;stroke:none;stroke-width:1.5;stroke-miterlimit:4;stroke-dasharray:none;paint-order:stroke fill markers;stop-color:#000000"
       d="m -517.76498,315.09919 c 2.12026,-5.35651 4.62552,-16.08168 0.42078,-25.80408 -3.67097,8.44832 -2.72366,19.1298 -0.42078,25.80408 z"
       id="path171607"
       sodipodi:nodetypes="ccc" />
  </g>
</svg>
